<?xml version="1.0" encoding="utf-8"?>
<!-- Generator: Adobe Illustrator 19.0.0, SVG Export Plug-In . SVG Version: 6.00 Build 0)  -->
<svg version="1.1" id="Layer_1" xmlns="http://www.w3.org/2000/svg"  x="0px" y="0px"
	 viewBox="0 0 782.5 83.9" style="enable-background:new 0 0 782.5 83.9;" xml:space="preserve">
<g id="Brand">
	<g id="Logo">
		<path d="M92.6,36.1C86,27.9,77.5,21.1,67.8,16.3c-1.1-0.5-2.2-1.1-3.4-1.5c2.4-1.1,1.3-0.7,3.3-1.7
			c1.1,0.5,2.3,1.1,3.4,1.7c9.3,4.9,17.5,11.8,24.1,19.9C94.2,35.3,94,35.6,92.6,36.1z"/>
		<path d="M42.6,36.3c6.7-8.3,15.1-15.2,24.8-19.9c1.1-0.5,2.2-1.1,3.4-1.6c-2.4-1.1-1.3-0.7-3.3-1.7
			c-1.1,0.5-2.2,1.1-3.3,1.7c-9.3,5-17.5,11.8-24,20.1C41,35.5,41.3,35.7,42.6,36.3z"/>
		<path d="M83.5,84.1c-8-30-33.7-52.7-65.3-56c-1-0.1-2-0.2-2.9-0.3c-0.4,1.2-0.5,1.5-0.8,2.9
			c31.6,1.8,57.9,23.9,66,53.4C82.2,84.1,82.1,84.1,83.5,84.1z"/>
		<path d="M66.7,54.5C79,40,96.4,30.2,116.2,28.1c1-0.1,1.9-0.2,2.9-0.3c0.4,1.2,0.5,1.5,0.8,2.9
			c-20.5,1.2-38.8,11-51.2,26C67.9,55.6,67.7,56,66.7,54.5z"/>
		<path d="M20,83.9c-8.2-16-10.7-35-6-53.5c0.2-1,0.5-1.9,0.8-2.9c1.3,0,1.6,0,2.9,0.2c-5.8,19.3-3.4,39.4,5.6,56.1
			C21.8,83.9,21.4,84,20,83.9z"/>
		<path d="M115.2,84.2c8.1-16.1,10.6-35.2,6-53.8c-0.2-1-0.5-1.9-0.8-2.9c-1.3,0-1.6,0-2.9,0.2
			c5.8,19.4,3.3,39.6-5.5,56.4C113.5,84.2,113.9,84.3,115.2,84.2z"/>
		<path d="M13.5,16c4.4,0,8,3.6,8,8c0,4.4-3.6,8-8,8c-4.4,0-8-3.6-8-8C5.5,19.6,9.1,16,13.5,16z"/>
		<path d="M120.9,16c4.4,0,8,3.6,8,8c0,4.4-3.6,8-8,8c-4.4,0-8-3.6-8-8C112.9,19.6,116.5,16,120.9,16z"/>
		<path d="M67.2,0c4.4,0,8,3.6,8,8s-3.6,8-8,8c-4.4,0-8-3.6-8-8S62.8,0,67.2,0z"/>
	</g>
	<g id="Herlandia">
		<path d="M199.1,77.6V17.8H194v26.7h-37.8V17.8h-5.1v59.8h5.1V49.2H194v28.4H199.1z"/>
		<path d="M273.2,77.6V73h-32.7V49.3h32.1v-4.7h-32.1V22.5h32.7v-4.7h-37.8v59.8H273.2z"/>
		<path d="M348.4,77.6l-17.3-25.1c8.9-0.4,16.5-6.4,16.5-17.2c0-10.9-7.9-17.5-18.1-17.5h-22.3v59.8h5.1V52.9h13.1
			l16.7,24.8H348.4z M329.1,48.2h-16.7V22.5h16.7c8,0,13.2,5.3,13.2,12.8S337.1,48.2,329.1,48.2z"/>
		<path d="M414.6,77.6V73h-28.9V17.8h-5.2v59.8H414.6z"/>
		<path d="M495.6,77.6l-24.4-59.8h-6.3l-24.4,59.8h5.9l5.9-14.7h31.6l5.9,14.7H495.6z M482.1,58.3H454l14.1-35
			L482.1,58.3z"/>
		<path d="M573.5,77.6V17.8h-5.1v50.7L531,17.8h-5.2v59.8h5.1V26.2l37.5,51.4H573.5z"/>
		<path d="M628.8,77.6c18.5,0,30.1-13.3,30.1-29.9c0-16.4-11.6-30-30.1-30h-19v59.8H628.8z M628.8,73h-13.9V22.5h13.9
			c15.8,0,24.8,11.3,24.8,25.3C653.5,61.8,644.5,73,628.8,73z"/>
		<path d="M698.1,77.6V17.8H693v59.8H698.1z"/>
		<path d="M783.5,77.6l-24.4-59.8h-6.3l-24.4,59.8h5.9l5.9-14.7h31.6l5.9,14.7H783.5z M770,58.3h-28.2l14.1-35L770,58.3
			z"/>
	</g>
</g>
</svg>
